<svg width="445" height="46" viewBox="0 0 445 46" fill="none" xmlns="http://www.w3.org/2000/svg">
<path d="M7.65 6.55C6.06667 6.55 5.275 5.75 5.275 4.15V2.675C5.275 1.10833 6.06667 0.324999 7.65 0.324999H9.1C10.6167 0.324999 11.375 1.10833 11.375 2.675V4.15C11.375 5.75 10.6167 6.55 9.1 6.55H7.65ZM2.8 46C2.08333 46 1.55833 45.8167 1.225 45.45C0.908333 45.0833 0.75 44.5667 0.75 43.9C0.75 43.2167 0.925 42.6917 1.275 42.325C1.625 41.975 2.13333 41.8 2.8 41.8C4.15 41.8 5.05 41.5667 5.5 41.1C5.96667 40.65 6.2 39.75 6.2 38.4V12.75C6.2 11.35 6.9 10.65 8.3 10.65C9.7 10.65 10.4 11.35 10.4 12.75V38.4C10.4 40.9667 9.775 42.875 8.525 44.125C7.29167 45.375 5.38333 46 2.8 46ZM23.7996 25.05V26.25C23.7996 28.4 24.1913 29.8667 24.9746 30.65C25.7579 31.4167 27.2329 31.8 29.3996 31.8H33.4996C35.1996 31.8 36.4579 31.6417 37.2746 31.325C38.0913 31.0083 38.6329 30.45 38.8996 29.65C39.0829 29.0167 39.3329 28.5333 39.6496 28.2C39.9829 27.8667 40.4829 27.7 41.1496 27.7C41.8496 27.7 42.3829 27.8833 42.7496 28.25C43.1163 28.6167 43.2329 29.15 43.0996 29.85C42.7329 31.9167 41.7496 33.4583 40.1496 34.475C38.5496 35.4917 36.3329 36 33.4996 36H29.3996C26.0829 36 23.6163 35.2 21.9996 33.6C20.3996 32 19.5996 29.55 19.5996 26.25V20.45C19.5996 17.0667 20.3996 14.5833 21.9996 13C23.6163 11.4 26.0829 10.6167 29.3996 10.65H33.4996C36.8329 10.65 39.2996 11.45 40.8996 13.05C42.4996 14.6333 43.2996 17.1 43.2996 20.45V22.95C43.2996 24.35 42.5996 25.05 41.1996 25.05H23.7996ZM29.3996 14.85C27.2329 14.8167 25.7579 15.1917 24.9746 15.975C24.1913 16.7583 23.7996 18.25 23.7996 20.45V20.85H39.0996V20.45C39.0996 18.2667 38.7079 16.7917 37.9246 16.025C37.1579 15.2417 35.6829 14.85 33.4996 14.85H29.3996ZM60.0391 36C57.4891 36 55.5891 35.375 54.3391 34.125C53.1057 32.8583 52.4891 30.95 52.4891 28.4V2.9C52.4891 1.5 53.1891 0.799997 54.5891 0.799997C55.9891 0.799997 56.6891 1.5 56.6891 2.9V28.4C56.6891 29.75 56.9057 30.6583 57.3391 31.125C57.7891 31.575 58.6891 31.8 60.0391 31.8C61.4724 31.8 62.1891 32.5 62.1891 33.9C62.2391 35.3 61.5224 36 60.0391 36ZM77.2512 36C73.9345 36 71.4678 35.2 69.8512 33.6C68.2512 32 67.4512 29.55 67.4512 26.25V20.45C67.4512 17.1 68.2512 14.6333 69.8512 13.05C71.4678 11.45 73.9345 10.65 77.2512 10.65H81.3512C84.6845 10.65 87.1512 11.45 88.7512 13.05C90.3512 14.65 91.1512 17.1167 91.1512 20.45V26.2C91.1512 29.5167 90.3512 31.9833 88.7512 33.6C87.1512 35.2 84.6845 36 81.3512 36H77.2512ZM71.6512 26.25C71.6512 28.4 72.0428 29.8667 72.8262 30.65C73.6095 31.4167 75.0845 31.8 77.2512 31.8H81.3512C83.5345 31.8 85.0095 31.4083 85.7762 30.625C86.5595 29.8417 86.9512 28.3667 86.9512 26.2V20.45C86.9512 18.2667 86.5595 16.7917 85.7762 16.025C85.0095 15.2417 83.5345 14.85 81.3512 14.85H77.2512C75.8012 14.85 74.6678 15.0167 73.8512 15.35C73.0512 15.6667 72.4845 16.2333 72.1512 17.05C71.8178 17.85 71.6512 18.9833 71.6512 20.45V26.25ZM102.441 36C101.041 36 100.341 35.3 100.341 33.9V2.9C100.341 1.5 101.041 0.799997 102.441 0.799997C103.841 0.799997 104.541 1.5 104.541 2.9V13.325C105.407 12.4417 106.491 11.775 107.791 11.325C109.091 10.875 110.607 10.65 112.341 10.65H114.241C117.574 10.65 120.041 11.45 121.641 13.05C123.241 14.65 124.041 17.1167 124.041 20.45V26.2C124.041 29.5167 123.241 31.9833 121.641 33.6C120.041 35.2 117.574 36 114.241 36H112.341C110.607 36 109.091 35.775 107.791 35.325C106.491 34.875 105.407 34.2167 104.541 33.35V33.9C104.541 35.3 103.841 36 102.441 36ZM112.341 31.8H114.241C116.424 31.8 117.899 31.4083 118.666 30.625C119.449 29.825 119.841 28.35 119.841 26.2V20.45C119.841 18.2667 119.441 16.7917 118.641 16.025C117.857 15.2417 116.391 14.85 114.241 14.85H112.341C110.141 14.85 108.291 15.1333 106.791 15.7C105.291 16.25 104.541 17.1167 104.541 18.3V28.35C104.541 29.5167 105.291 30.3833 106.791 30.95C108.291 31.5167 110.141 31.8 112.341 31.8ZM135.351 36C133.951 36 133.251 35.3 133.251 33.9V12.75C133.251 11.35 133.951 10.65 135.351 10.65C136.751 10.65 137.451 11.35 137.451 12.75V14.7C138.434 13.3667 139.684 12.3583 141.201 11.675C142.734 10.9917 144.484 10.65 146.451 10.65C147.851 10.65 148.551 11.35 148.551 12.75C148.551 14.15 147.851 14.85 146.451 14.85C143.567 14.85 141.367 15.3833 139.851 16.45C138.334 17.5167 137.534 18.925 137.451 20.675V33.9C137.451 35.3 136.751 36 135.351 36ZM161.289 46C158.872 46 157.064 45.3917 155.864 44.175C154.68 42.975 154.089 41.1667 154.089 38.75C154.089 37.35 154.789 36.65 156.189 36.65C157.589 36.65 158.289 37.35 158.289 38.75C158.289 40 158.472 40.8167 158.839 41.2C159.222 41.6 160.039 41.8 161.289 41.8H170.989C172.222 41.8 173.03 41.6 173.414 41.2C173.797 40.8167 173.989 40 173.989 38.75V32.4C172.989 33.9 171.822 34.875 170.489 35.325C169.172 35.775 167.739 36 166.189 36H163.739C160.439 36 158.005 35.2167 156.439 33.65C154.872 32.0833 154.089 29.6667 154.089 26.4V12.75C154.089 11.35 154.789 10.65 156.189 10.65C157.589 10.65 158.289 11.35 158.289 12.75V26.4C158.289 28.5 158.664 29.925 159.414 30.675C160.18 31.425 161.622 31.8 163.739 31.8H166.189C168.922 31.8 170.905 31.3583 172.139 30.475C173.372 29.575 173.989 28.2167 173.989 26.4V12.75C173.989 11.35 174.689 10.65 176.089 10.65C177.489 10.65 178.189 11.35 178.189 12.75V38.75C178.189 41.1667 177.589 42.975 176.389 44.175C175.189 45.3917 173.389 46 170.989 46H161.289ZM196.123 36C193.573 36 191.673 35.375 190.423 34.125C189.19 32.8583 188.573 30.95 188.573 28.4V2.9C188.573 1.5 189.273 0.799997 190.673 0.799997C192.073 0.799997 192.773 1.5 192.773 2.9V28.4C192.773 29.75 192.99 30.6583 193.423 31.125C193.873 31.575 194.773 31.8 196.123 31.8C197.556 31.8 198.273 32.5 198.273 33.9C198.323 35.3 197.606 36 196.123 36ZM213.262 36C210.712 36 208.812 35.375 207.562 34.125C206.328 32.8583 205.712 30.95 205.712 28.4V2.9C205.712 1.5 206.412 0.799997 207.812 0.799997C209.212 0.799997 209.912 1.5 209.912 2.9V28.4C209.912 29.75 210.128 30.6583 210.562 31.125C211.012 31.575 211.912 31.8 213.262 31.8C214.695 31.8 215.412 32.5 215.412 33.9C215.462 35.3 214.745 36 213.262 36ZM224.874 25.05V26.25C224.874 28.4 225.265 29.8667 226.049 30.65C226.832 31.4167 228.307 31.8 230.474 31.8H234.574C236.274 31.8 237.532 31.6417 238.349 31.325C239.165 31.0083 239.707 30.45 239.974 29.65C240.157 29.0167 240.407 28.5333 240.724 28.2C241.057 27.8667 241.557 27.7 242.224 27.7C242.924 27.7 243.457 27.8833 243.824 28.25C244.19 28.6167 244.307 29.15 244.174 29.85C243.807 31.9167 242.824 33.4583 241.224 34.475C239.624 35.4917 237.407 36 234.574 36H230.474C227.157 36 224.69 35.2 223.074 33.6C221.474 32 220.674 29.55 220.674 26.25V20.45C220.674 17.0667 221.474 14.5833 223.074 13C224.69 11.4 227.157 10.6167 230.474 10.65H234.574C237.907 10.65 240.374 11.45 241.974 13.05C243.574 14.6333 244.374 17.1 244.374 20.45V22.95C244.374 24.35 243.674 25.05 242.274 25.05H224.874ZM230.474 14.85C228.307 14.8167 226.832 15.1917 226.049 15.975C225.265 16.7583 224.874 18.25 224.874 20.45V20.85H240.174V20.45C240.174 18.2667 239.782 16.7917 238.999 16.025C238.232 15.2417 236.757 14.85 234.574 14.85H230.474ZM271.69 35.95C269.64 35.95 268.073 35.5167 266.99 34.65C265.907 33.7667 265.257 32.425 265.04 30.625C264.99 30.1917 265.082 29.8583 265.315 29.625C265.548 29.375 265.89 29.25 266.34 29.25C266.757 29.25 267.065 29.3583 267.265 29.575C267.482 29.7917 267.623 30.1167 267.69 30.55C267.84 31.5833 268.215 32.3083 268.815 32.725C269.432 33.125 270.39 33.325 271.69 33.325H279.89C281.44 33.325 282.507 33.0333 283.09 32.45C283.673 31.8667 283.965 30.8 283.965 29.25C283.965 27.6833 283.673 26.6083 283.09 26.025C282.507 25.4417 281.44 25.15 279.89 25.15H271.79C269.623 25.15 268.007 24.6333 266.94 23.6C265.89 22.55 265.365 20.9417 265.365 18.775C265.365 16.5583 265.89 14.9333 266.94 13.9C267.99 12.85 269.607 12.325 271.79 12.325H279.64C283.407 12.325 285.498 13.9917 285.915 17.325C285.982 17.7583 285.89 18.1 285.64 18.35C285.407 18.5833 285.073 18.7 284.64 18.7C284.223 18.7 283.907 18.5917 283.69 18.375C283.49 18.1583 283.348 17.8417 283.265 17.425C283.148 16.4917 282.807 15.85 282.24 15.5C281.69 15.1333 280.823 14.95 279.64 14.95H271.79C270.34 14.95 269.34 15.2167 268.79 15.75C268.257 16.2833 267.99 17.2917 267.99 18.775C267.99 20.1917 268.265 21.175 268.815 21.725C269.365 22.2583 270.357 22.525 271.79 22.525H279.89C282.19 22.525 283.882 23.075 284.965 24.175C286.048 25.2583 286.59 26.95 286.59 29.25C286.59 31.5333 286.048 33.225 284.965 34.325C283.882 35.4083 282.19 35.95 279.89 35.95H271.69ZM302.795 36C299.678 36 297.395 35.2833 295.945 33.85C294.495 32.4 293.77 30.125 293.77 27.025V21.375C293.77 18.225 294.495 15.9333 295.945 14.5C297.395 13.05 299.678 12.3417 302.795 12.375H306.895C310.011 12.375 312.286 13.1 313.72 14.55C315.17 15.9833 315.895 18.2583 315.895 21.375V26.975C315.895 30.0917 315.17 32.375 313.72 33.825C312.286 35.275 310.011 36 306.895 36H302.795ZM296.395 27.025C296.395 29.375 296.861 31.025 297.795 31.975C298.745 32.9083 300.411 33.375 302.795 33.375H306.895C309.278 33.375 310.936 32.9083 311.87 31.975C312.803 31.025 313.27 29.3583 313.27 26.975V21.375C313.27 18.9917 312.803 17.3333 311.87 16.4C310.936 15.4667 309.278 15 306.895 15H302.795C301.195 14.9833 299.928 15.175 298.995 15.575C298.061 15.975 297.395 16.6417 296.995 17.575C296.595 18.5083 296.395 19.775 296.395 21.375V27.025ZM331.446 36C329.08 36 327.338 35.45 326.221 34.35C325.121 33.25 324.571 31.525 324.571 29.175V2.625C324.571 1.75833 325.013 1.325 325.896 1.325C326.763 1.325 327.196 1.75833 327.196 2.625V29.175C327.196 30.7917 327.496 31.9 328.096 32.5C328.696 33.0833 329.805 33.375 331.421 33.375C332.321 33.375 332.771 33.8083 332.771 34.675C332.788 35.5583 332.346 36 331.446 36ZM339.872 7.825C338.722 7.825 338.147 7.23333 338.147 6.05V4.925C338.147 3.775 338.722 3.2 339.872 3.2H340.997C342.114 3.2 342.672 3.775 342.672 4.925V6.05C342.672 7.23333 342.114 7.825 340.997 7.825H339.872ZM340.447 36C339.564 36 339.122 35.5583 339.122 34.675V13.675C339.122 12.8083 339.564 12.375 340.447 12.375C341.314 12.375 341.747 12.8083 341.747 13.675V34.675C341.747 35.5583 341.314 36 340.447 36ZM377.56 12.325C380.243 12.325 382.16 13.0083 383.31 14.375C384.477 15.7417 385.06 18 385.06 21.15V34.725C385.06 35.5917 384.627 36.025 383.76 36.025C382.877 36.025 382.435 35.5917 382.435 34.725V21.15C382.435 18.95 382.06 17.3667 381.31 16.4C380.56 15.4333 379.31 14.95 377.56 14.95H375.485C373.302 14.95 371.735 15.4333 370.785 16.4C369.852 17.3667 369.385 18.95 369.385 21.15V34.725C369.385 35.5917 368.952 36.025 368.085 36.025C367.202 36.025 366.76 35.5917 366.76 34.725V21.15C366.76 18.95 366.385 17.3667 365.635 16.4C364.885 15.4333 363.635 14.95 361.885 14.95H359.81C357.627 14.95 356.06 15.4333 355.11 16.4C354.177 17.3667 353.71 18.95 353.71 21.15V34.725C353.71 35.5917 353.277 36.025 352.41 36.025C351.527 36.025 351.085 35.5917 351.085 34.725V13.675C351.085 12.8083 351.527 12.375 352.41 12.375C353.277 12.375 353.71 12.8083 353.71 13.675V15.625C354.443 14.4417 355.31 13.6 356.31 13.1C357.327 12.5833 358.61 12.325 360.16 12.325H361.885C363.635 12.325 365.035 12.6333 366.085 13.25C367.152 13.85 367.993 14.8417 368.61 16.225C369.343 14.8417 370.243 13.85 371.31 13.25C372.377 12.6333 373.768 12.325 375.485 12.325H377.56ZM400.005 36C397.405 36 395.496 35.4 394.28 34.2C393.08 32.9833 392.48 31.075 392.48 28.475C392.48 25.875 393.088 23.9667 394.305 22.75C395.521 21.5333 397.421 20.925 400.005 20.925H411.38C411.346 18.725 410.846 17.1917 409.88 16.325C408.93 15.4417 407.305 15 405.005 15H402.105C399.988 15 398.438 15.225 397.455 15.675C396.471 16.125 395.863 16.8917 395.63 17.975C395.513 18.3917 395.355 18.7 395.155 18.9C394.971 19.0833 394.671 19.175 394.255 19.175C393.821 19.175 393.48 19.0583 393.23 18.825C392.996 18.575 392.913 18.2417 392.98 17.825C393.196 15.925 394.055 14.5417 395.555 13.675C397.071 12.8083 399.255 12.375 402.105 12.375H405.005C408.121 12.375 410.396 13.1 411.83 14.55C413.28 15.9833 414.005 18.2583 414.005 21.375V34.675C414.005 35.5583 413.571 36 412.705 36C411.821 36 411.38 35.5583 411.38 34.675V32.2C409.78 34.7333 406.921 36 402.805 36H400.005ZM400.005 33.375H402.805C404.421 33.375 405.838 33.2 407.055 32.85C408.288 32.4833 409.28 31.9 410.03 31.1C410.78 30.3 411.23 29.2333 411.38 27.9V23.55H400.005C398.155 23.55 396.871 23.9083 396.155 24.625C395.455 25.325 395.105 26.6083 395.105 28.475C395.105 30.325 395.455 31.6083 396.155 32.325C396.871 33.025 398.155 33.375 400.005 33.375ZM424.236 36C423.353 36 422.911 35.5583 422.911 34.675V13.675C422.911 12.8083 423.353 12.375 424.236 12.375C425.103 12.375 425.536 12.8083 425.536 13.675V16.075C427.12 13.6083 429.986 12.375 434.136 12.375H435.536C438.653 12.375 440.928 13.1 442.361 14.55C443.811 15.9833 444.536 18.2583 444.536 21.375V34.675C444.536 35.5583 444.103 36 443.236 36C442.353 36 441.911 35.5583 441.911 34.675V21.375C441.911 18.9917 441.436 17.3333 440.486 16.4C439.553 15.4667 437.903 15 435.536 15H434.136C431.553 15 429.52 15.4083 428.036 16.225C426.553 17.0417 425.72 18.3167 425.536 20.05V34.675C425.536 35.5583 425.103 36 424.236 36Z" fill="white"/>
<path d="M254.563 36C253.23 36 252.563 35.3333 252.563 34V32.75C252.563 31.45 253.23 30.8 254.563 30.8H255.763C257.03 30.8 257.663 31.45 257.663 32.75V34C257.663 35.3333 257.03 36 255.763 36H254.563Z" fill="#F15A24"/>
</svg>
