<svg xmlns="http://www.w3.org/2000/svg"  viewBox="0 0 48 48" width="48px" height="48px"><path d="M 9 6 C 7.34 6 6 7.34 6 9 L 6 39 C 6 40.66 7.34 42 9 42 L 16.5 42 C 16.5 40.91 16.649688 30.939375 21.429688 23.109375 L 20.349609 20.839844 C 19.169609 20.469844 16.67 19.32 15 16 C 14.39 14.78 14.150547 12.799219 14.060547 11.449219 C 14.020547 10.852219 14.507687 10.386719 15.054688 10.386719 C 15.185688 10.386719 15.318219 10.413703 15.449219 10.470703 C 16.369219 10.880703 17.63 11.63 19 13 C 21.53 15.53 21.660156 18.060078 21.410156 19.580078 L 22.380859 21.669922 C 22.520859 21.469922 22.660547 21.279844 22.810547 21.089844 C 28.970547 13.039844 30 6.06 30 6 L 9 6 z M 32 6 C 32 7 31.879453 14.160156 25.189453 22.910156 C 22.839453 25.970156 21.470156 29.66 20.660156 33 L 22 33 C 22 33 22 32 27 30 C 29.514 28.996 32.029156 28.75 33.910156 28.75 C 34.521156 28.75 35.063531 28.776547 35.519531 28.810547 C 36.259531 28.870547 36.679297 29.709844 36.279297 30.339844 C 35.249297 31.969844 33.03 34.66 29 36 C 27.431 36.522 26.155 36.785156 25.125 36.785156 C 23.588 36.785156 22.598 36.198 22 35 L 20.220703 35 C 19.540703 38.62 19.5 41.47 19.5 42 L 39 42 C 40.66 42 42 40.66 42 39 L 42 9 C 42 7.34 40.66 6 39 6 L 32 6 z"/></svg>